<?xml version="1.0" encoding="UTF-8" standalone="no" ?>
<!DOCTYPE svg PUBLIC "-//W3C//DTD SVG 1.1//EN" "http://www.w3.org/Graphics/SVG/1.1/DTD/svg11.dtd">
<svg xmlns="http://www.w3.org/2000/svg" xmlns:xlink="http://www.w3.org/1999/xlink" version="1.1" width="1080" height="1080" viewBox="0 0 1080 1080" xml:space="preserve">
<desc>Created with Fabric.js 5.2.4</desc>
<defs>
</defs>
<g transform="matrix(1 0 0 1 540 540)" id="c746df60-540a-4bcc-a418-fe611890d357"  >
<rect style="stroke: none; stroke-width: 1; stroke-dasharray: none; stroke-linecap: butt; stroke-dashoffset: 0; stroke-linejoin: miter; stroke-miterlimit: 4; fill: rgb(255,255,255); fill-rule: nonzero; opacity: 1; visibility: hidden;" vector-effect="non-scaling-stroke"  x="-540" y="-540" rx="0" ry="0" width="1080" height="1080" />
</g>
<g transform="matrix(1 0 0 1 540 540)" id="26f304a6-6e92-48cb-a359-6fddef49c7d1"  >
</g>
<g transform="matrix(4.93 0 0 4.93 540 540)"  >
<g style=""   >
		<g transform="matrix(1 0 0 1 -68.65 -0.15)"  >
<path style="stroke: none; stroke-width: 1; stroke-dasharray: none; stroke-linecap: butt; stroke-dashoffset: 0; stroke-linejoin: miter; stroke-miterlimit: 4; fill: rgb(255,255,255); fill-rule: nonzero; opacity: 1;" vector-effect="non-scaling-stroke"  transform=" translate(-40.85, -13.35)" d="M 81.6 13.1 L 78.5 13.1 C 76.5 13.1 75.4 14.6 75.4 17.2 L 75.4 26.5 L 69.4 26.5 L 69.4 13.1 L 66.9 13.1 C 64.9 13.1 63.800000000000004 14.6 63.800000000000004 17.2 L 63.800000000000004 26.5 L 57.800000000000004 26.5 L 57.800000000000004 8.1 L 63.800000000000004 8.1 L 63.800000000000004 10.899999999999999 C 64.80000000000001 8.7 66.10000000000001 8.099999999999998 68.10000000000001 8.099999999999998 L 75.4 8.099999999999998 L 75.4 10.899999999999999 C 76.4 8.7 77.7 8.099999999999998 79.7 8.099999999999998 L 81.7 8.099999999999998 L 81.6 13.1 z M 56.4 18.7 L 44 18.7 C 44.3 20.8 45.6 21.9 47.7 21.9 C 49.300000000000004 21.9 50.400000000000006 21.2 50.800000000000004 20.099999999999998 L 56.1 21.599999999999998 C 54.800000000000004 24.799999999999997 51.6 26.699999999999996 47.7 26.699999999999996 C 41.2 26.699999999999996 38.2 21.599999999999994 38.2 17.199999999999996 C 38.2 12.899999999999995 40.800000000000004 7.799999999999995 47.300000000000004 7.799999999999995 C 54.2 7.799999999999995 56.5 12.999999999999996 56.5 16.899999999999995 C 56.5 17.8 56.5 18.3 56.4 18.7 z M 50.7 15.2 C 50.6 13.6 49.400000000000006 12.2 47.400000000000006 12.2 C 45.50000000000001 12.2 44.400000000000006 13 44.00000000000001 15.2 L 50.7 15.2 z M 27.8 26.5 L 33 26.5 L 39.6 8.2 L 33.6 8.2 L 30.400000000000002 18.9 L 27.2 8.1 L 21.2 8.1 L 27.8 26.5 z M 3.4 26.5 L 9.3 26.5 L 9.3 13.1 L 15 13.1 L 15 26.5 L 20.9 26.5 L 20.9 8.1 L 9.3 8.1 L 9.3 7 C 9.3 5.8 10.200000000000001 5 11.5 5 L 15 5 L 15 0 L 10.6 0 C 6.3 0 3.4 2.7 3.4 6.6 L 3.4 8.1 L 0 8.1 L 0 13.1 L 3.4 13.1 L 3.4 26.5 z" stroke-linecap="round" />
</g>
		<g transform="matrix(1 0 0 1 -12.3 -0.2)"  >
<path style="stroke: none; stroke-width: 1; stroke-dasharray: none; stroke-linecap: butt; stroke-dashoffset: 0; stroke-linejoin: miter; stroke-miterlimit: 4; fill: rgb(255,255,255); fill-rule: nonzero; opacity: 1;" vector-effect="non-scaling-stroke"  transform=" translate(-97.2, -13.3)" d="M 91.7 23.7 L 91.7 26.4 L 88.2 26.4 L 88.2 0 L 91.7 0 L 91.7 10.8 C 92.8 9 95 7.800000000000001 97.5 7.800000000000001 C 103.1 7.800000000000001 106.2 11.8 106.2 17.200000000000003 C 106.2 22.600000000000005 103 26.6 97.4 26.6 C 95 26.7 92.8 25.5 91.7 23.7 z M 102.6 17.3 C 102.6 13.5 100.39999999999999 10.9 97 10.9 C 93.6 10.9 91.4 13.4 91.4 17.3 C 91.4 21.200000000000003 93.60000000000001 23.700000000000003 97 23.700000000000003 C 100.4 23.6 102.6 21.1 102.6 17.3 z" stroke-linecap="round" />
</g>
		<g transform="matrix(1 0 0 1 5.9 3.9)"  >
<path style="stroke: none; stroke-width: 1; stroke-dasharray: none; stroke-linecap: butt; stroke-dashoffset: 0; stroke-linejoin: miter; stroke-miterlimit: 4; fill: rgb(255,255,255); fill-rule: nonzero; opacity: 1;" vector-effect="non-scaling-stroke"  transform=" translate(-115.4, -17.4)" d="M 123.5 26.4 L 120 26.4 L 120 23.2 C 119 25.5 116.8 26.7 114.1 26.7 C 110 26.7 107.3 23.7 107.3 19.4 L 107.3 8.1 L 110.8 8.1 L 110.8 18.7 C 110.8 21.599999999999998 112.5 23.6 115.1 23.6 C 118 23.6 120 21.3 120 18.1 L 120 8.1 L 123.5 8.1 L 123.5 26.4 z" stroke-linecap="round" />
</g>
		<g transform="matrix(1 0 0 1 22.55 3.85)"  >
<path style="stroke: none; stroke-width: 1; stroke-dasharray: none; stroke-linecap: butt; stroke-dashoffset: 0; stroke-linejoin: miter; stroke-miterlimit: 4; fill: rgb(255,255,255); fill-rule: nonzero; opacity: 1;" vector-effect="non-scaling-stroke"  transform=" translate(-132.05, -17.35)" d="M 125 20.5 L 128.2 20.5 C 128.5 22.7 129.89999999999998 23.9 132.39999999999998 23.9 C 134.49999999999997 23.9 135.89999999999998 22.799999999999997 135.89999999999998 21.4 C 135.89999999999998 16.4 125.39999999999998 21 125.39999999999998 13.099999999999998 C 125.39999999999998 9.999999999999998 128.09999999999997 7.899999999999998 131.89999999999998 7.899999999999998 C 135.99999999999997 7.899999999999998 138.79999999999998 10.199999999999998 138.99999999999997 13.599999999999998 L 135.79999999999998 13.599999999999998 C 135.49999999999997 11.499999999999998 133.49999999999997 10.699999999999998 131.89999999999998 10.699999999999998 C 129.89999999999998 10.699999999999998 128.59999999999997 11.599999999999998 128.59999999999997 13.099999999999998 C 128.59999999999997 17.699999999999996 139.09999999999997 12.999999999999998 139.09999999999997 21.299999999999997 C 139.09999999999997 24.599999999999998 136.39999999999998 26.799999999999997 132.29999999999995 26.799999999999997 C 128.1 26.7 125.2 24.3 125 20.5 z" stroke-linecap="round" />
</g>
		<g transform="matrix(1 0 0 1 33.25 3.75)"  >
<path style="stroke: none; stroke-width: 1; stroke-dasharray: none; stroke-linecap: butt; stroke-dashoffset: 0; stroke-linejoin: miter; stroke-miterlimit: 4; fill: rgb(255,255,255); fill-rule: nonzero; opacity: 1;" vector-effect="non-scaling-stroke"  transform=" translate(-142.75, -17.25)" d="M 144.5 8.1 L 141 8.1 L 141 26.4 L 144.5 26.4 L 144.5 8.1 z" stroke-linecap="round" />
</g>
		<g transform="matrix(1 0 0 1 45.65 3.6)"  >
<path style="stroke: none; stroke-width: 1; stroke-dasharray: none; stroke-linecap: butt; stroke-dashoffset: 0; stroke-linejoin: miter; stroke-miterlimit: 4; fill: rgb(255,255,255); fill-rule: nonzero; opacity: 1;" vector-effect="non-scaling-stroke"  transform=" translate(-155.15, -17.1)" d="M 147.1 8.1 L 150.6 8.1 L 150.6 11.3 C 151.6 9 153.79999999999998 7.800000000000001 156.5 7.800000000000001 C 160.6 7.800000000000001 163.3 10.8 163.3 15.100000000000001 L 163.3 26.400000000000002 L 159.8 26.400000000000002 L 159.8 15.8 C 159.8 12.9 158.10000000000002 10.9 155.5 10.9 C 152.6 10.9 150.6 13.2 150.6 16.4 L 150.6 26.299999999999997 L 147 26.299999999999997 L 147.1 8.1 z" stroke-linecap="round" />
</g>
		<g transform="matrix(1 0 0 1 80.45 3.85)"  >
<path style="stroke: none; stroke-width: 1; stroke-dasharray: none; stroke-linecap: butt; stroke-dashoffset: 0; stroke-linejoin: miter; stroke-miterlimit: 4; fill: rgb(255,255,255); fill-rule: nonzero; opacity: 1;" vector-effect="non-scaling-stroke"  transform=" translate(-189.95, -17.35)" d="M 182.9 20.5 L 186.1 20.5 C 186.4 22.7 187.79999999999998 23.9 190.29999999999998 23.9 C 192.39999999999998 23.9 193.79999999999998 22.799999999999997 193.79999999999998 21.4 C 193.79999999999998 16.4 183.29999999999998 21 183.29999999999998 13.099999999999998 C 183.29999999999998 9.999999999999998 185.99999999999997 7.899999999999998 189.79999999999998 7.899999999999998 C 193.89999999999998 7.899999999999998 196.7 10.199999999999998 196.89999999999998 13.599999999999998 L 193.7 13.599999999999998 C 193.39999999999998 11.499999999999998 191.39999999999998 10.699999999999998 189.79999999999998 10.699999999999998 C 187.79999999999998 10.699999999999998 186.49999999999997 11.599999999999998 186.49999999999997 13.099999999999998 C 186.49999999999997 17.699999999999996 196.99999999999997 12.999999999999998 196.99999999999997 21.299999999999997 C 196.99999999999997 24.599999999999998 194.29999999999998 26.799999999999997 190.19999999999996 26.799999999999997 C 186 26.7 183.2 24.3 182.9 20.5 z" stroke-linecap="round" />
</g>
		<g transform="matrix(1 0 0 1 63.95 3.75)"  >
<path style="stroke: none; stroke-width: 1; stroke-dasharray: none; stroke-linecap: butt; stroke-dashoffset: 0; stroke-linejoin: miter; stroke-miterlimit: 4; fill: rgb(255,255,255); fill-rule: nonzero; opacity: 1;" vector-effect="non-scaling-stroke"  transform=" translate(-173.45, -17.25)" d="M 178.7 20.5 C 178.2 22.6 176.39999999999998 23.7 173.79999999999998 23.7 C 170.6 23.7 168.39999999999998 21.3 168.1 17.9 L 182.1 17.9 C 182.1 17.599999999999998 182.2 17 182.2 16.5 C 182.2 11.9 179.2 7.800000000000001 173.5 7.800000000000001 C 167.9 7.800000000000001 164.7 12 164.7 17.1 C 164.7 22.200000000000003 168.2 26.700000000000003 173.89999999999998 26.700000000000003 C 177.99999999999997 26.700000000000003 181.09999999999997 24.6 182.09999999999997 21.400000000000002 L 178.7 20.5 z M 173.4 10.7 C 176.4 10.7 178.3 12.6 178.5 15.299999999999999 L 168.1 15.299999999999999 C 168.7 12.2 170.5 10.7 173.4 10.7 z" stroke-linecap="round" />
</g>
		<g transform="matrix(1 0 0 1 95.65 3.85)"  >
<path style="stroke: none; stroke-width: 1; stroke-dasharray: none; stroke-linecap: butt; stroke-dashoffset: 0; stroke-linejoin: miter; stroke-miterlimit: 4; fill: rgb(255,255,255); fill-rule: nonzero; opacity: 1;" vector-effect="non-scaling-stroke"  transform=" translate(-205.15, -17.35)" d="M 198.1 20.5 L 201.29999999999998 20.5 C 201.6 22.7 202.99999999999997 23.9 205.49999999999997 23.9 C 207.59999999999997 23.9 208.99999999999997 22.799999999999997 208.99999999999997 21.4 C 208.99999999999997 16.4 198.49999999999997 21 198.49999999999997 13.099999999999998 C 198.49999999999997 9.999999999999998 201.19999999999996 7.899999999999998 204.99999999999997 7.899999999999998 C 209.09999999999997 7.899999999999998 211.89999999999998 10.199999999999998 212.09999999999997 13.599999999999998 L 208.89999999999998 13.599999999999998 C 208.59999999999997 11.499999999999998 206.59999999999997 10.699999999999998 204.99999999999997 10.699999999999998 C 202.99999999999997 10.699999999999998 201.69999999999996 11.599999999999998 201.69999999999996 13.099999999999998 C 201.69999999999996 17.699999999999996 212.19999999999996 12.999999999999998 212.19999999999996 21.299999999999997 C 212.19999999999996 24.599999999999998 209.49999999999997 26.799999999999997 205.39999999999995 26.799999999999997 C 201.2 26.7 198.3 24.3 198.1 20.5 z" stroke-linecap="round" />
</g>
		<g transform="matrix(1 0 0 1 33.2 -11.2)"  >
<path style="stroke: none; stroke-width: 1; stroke-dasharray: none; stroke-linecap: butt; stroke-dashoffset: 0; stroke-linejoin: miter; stroke-miterlimit: 4; fill: rgb(255,255,255); fill-rule: nonzero; opacity: 1;" vector-effect="non-scaling-stroke"  transform=" translate(-142.7, -2.3)" d="M 142.7 0 C 142.1 0 141.6 0.2 141.1 0.7 C 140.7 1.1 140.4 1.7 140.4 2.3 C 140.4 2.9 140.6 3.4 141.1 3.9 C 141.6 4.3 142.1 4.6 142.7 4.6 C 143.29999999999998 4.6 143.79999999999998 4.3999999999999995 144.29999999999998 3.8999999999999995 C 144.7 3.3999999999999995 144.99999999999997 2.8999999999999995 144.99999999999997 2.2999999999999994 C 144.99999999999997 1.9999999999999993 144.89999999999998 1.6999999999999993 144.79999999999998 1.3999999999999995 C 144.7 1.0999999999999996 144.49999999999997 0.8999999999999995 144.29999999999998 0.5999999999999994 C 144.1 0.3999999999999994 143.79999999999998 0.1999999999999994 143.6 0.09999999999999942 C 143.4 0.1 143.1 0 142.7 0 z" stroke-linecap="round" />
</g>
		<g transform="matrix(1 0 0 1 106.5 10.9)"  >
<path style="stroke: none; stroke-width: 1; stroke-dasharray: none; stroke-linecap: butt; stroke-dashoffset: 0; stroke-linejoin: miter; stroke-miterlimit: 4; fill: rgb(255,255,255); fill-rule: nonzero; opacity: 1;" vector-effect="non-scaling-stroke"  transform=" translate(-216, -24.4)" d="M 218.3 24.4 L 218.3 24.4 C 218.3 25 218.10000000000002 25.599999999999998 217.60000000000002 26 C 217.20000000000002 26.4 216.60000000000002 26.7 216.00000000000003 26.7 C 215.40000000000003 26.7 214.80000000000004 26.5 214.40000000000003 26 C 214.00000000000003 25.6 213.70000000000005 25 213.70000000000005 24.4 L 213.70000000000005 24.4 C 213.70000000000005 23.799999999999997 213.90000000000003 23.2 214.40000000000003 22.799999999999997 C 214.80000000000004 22.4 215.40000000000003 22.099999999999998 216.00000000000003 22.099999999999998 C 216.60000000000002 22.099999999999998 217.20000000000002 22.299999999999997 217.60000000000002 22.799999999999997 C 218.1 23.2 218.3 23.8 218.3 24.4 z" stroke-linecap="round" />
</g>
</g>
</g>
</svg>