<?xml version="1.0" standalone="no"?>
<!DOCTYPE svg PUBLIC "-//W3C//DTD SVG 20010904//EN"
 "http://www.w3.org/TR/2001/REC-SVG-20010904/DTD/svg10.dtd">
<svg version="1.0" xmlns="http://www.w3.org/2000/svg"
 width="200.000000pt" height="156.000000pt" viewBox="0 0 200.000000 156.000000"
 preserveAspectRatio="xMidYMid meet">

<g transform="translate(0.000000,156.000000) scale(0.100000,-0.100000)"
fill="#000000" stroke="none">
<path d="M204 1501 c-22 -10 -57 -36 -77 -56 -66 -68 -67 -75 -67 -665 0 -590
1 -597 67 -665 77 -79 25 -75 873 -75 710 0 757 2 795 19 50 22 96 67 121 118
18 36 19 68 19 603 0 535 -1 567 -19 603 -25 51 -71 96 -121 118 -38 17 -85
19 -795 19 -714 0 -757 -1 -796 -19z m1586 -73 c54 -37 74 -72 75 -130 l0 -51
-142 -86 c-79 -47 -232 -141 -342 -208 -247 -152 -264 -161 -334 -174 -96 -17
-151 3 -405 154 -122 73 -288 170 -368 217 l-146 85 4 58 c5 64 25 98 78 135
l33 22 757 0 757 0 33 -22z m75 -1195 c-3 -18 -17 -46 -32 -63 -53 -63 -10
-60 -836 -60 l-754 0 -33 22 c-18 13 -43 36 -54 51 -21 28 -21 39 -24 499 -2
447 -2 470 15 464 10 -4 72 -40 138 -80 301 -182 543 -320 591 -337 72 -26
177 -25 247 1 29 11 209 114 398 229 l344 210 3 -452 c1 -249 0 -466 -3 -484z"/>
</g>
</svg>
