<?xml version="1.0" standalone="no"?>
<!DOCTYPE svg PUBLIC "-//W3C//DTD SVG 20010904//EN"
 "http://www.w3.org/TR/2001/REC-SVG-20010904/DTD/svg10.dtd">
<svg version="1.0" xmlns="http://www.w3.org/2000/svg"
 width="200.000000pt" height="200.000000pt" viewBox="0 0 200.000000 200.000000"
 preserveAspectRatio="xMidYMid meet">

<g transform="translate(0.000000,200.000000) scale(0.100000,-0.100000)"
fill="#000000" stroke="none">
<path d="M891 1944 c-23 -9 -102 -51 -173 -95 l-131 -79 -74 0 c-110 0 -147
-24 -168 -108 -11 -44 -17 -49 -109 -107 -111 -70 -139 -100 -161 -169 -21
-70 -23 -1108 -1 -1178 19 -65 59 -113 119 -143 l51 -25 755 0 c849 0 797 -4
874 75 66 68 67 74 67 680 0 609 -1 614 -68 680 -20 20 -75 60 -122 88 -75 47
-85 56 -92 90 -18 87 -62 117 -172 117 l-75 0 -129 79 c-71 44 -150 86 -176
95 -58 20 -157 20 -215 0z m200 -66 c19 -6 68 -32 109 -57 l75 -46 -137 -3
c-76 -1 -200 -1 -275 0 l-138 3 75 46 c42 25 89 51 105 57 41 14 144 15 186 0z
m473 -189 l26 -21 -2 -296 -3 -295 -195 -120 c-264 -161 -305 -180 -389 -180
-89 1 -128 18 -376 165 l-210 125 -3 301 -2 300 26 21 c26 21 35 21 564 21
529 0 538 0 564 -21z m-1224 -363 l0 -215 -105 62 -105 62 0 58 c0 65 17 112
49 142 18 16 147 101 159 104 1 1 2 -95 2 -213z m1479 110 c33 -30 51 -77 51
-135 l0 -49 -99 -61 c-54 -34 -101 -61 -105 -61 -3 0 -6 92 -6 205 l0 205 68
-41 c37 -23 78 -51 91 -63z m49 -877 l-3 -346 -28 -36 c-54 -71 -4 -67 -840
-67 l-754 0 -33 22 c-18 13 -43 36 -54 51 -21 28 -21 39 -24 498 -1 258 0 469
4 469 4 0 160 -91 348 -202 187 -111 366 -211 396 -221 42 -15 75 -18 140 -15
106 5 104 4 525 261 l320 196 3 -132 c1 -73 1 -288 0 -478z"/>
</g>
</svg>
